<svg width="3197" height="1460" viewBox="0 0 3197 1460" fill="none" xmlns="http://www.w3.org/2000/svg">
<path d="M0 477.125L269.795 509.809C269.795 509.809 237.64 915.688 265.009 1141.43C265.009 1141.43 409.622 778.662 376.177 504.467C525.204 500.073 538.673 480.658 538.673 480.658C538.673 480.658 527.21 1032.9 604.904 1127.19C608.63 1020.92 578.567 689.657 723.008 351.444C867.449 13.2308 1089.41 5.41881 1177.02 1.05329C1218.12 -1.10075 1290.71 32.9618 1319.89 78.5988C1350.5 130.296 1357.75 231.766 1317.51 280.906C1277.27 330.047 1199.18 373.932 1138.25 356.729C1077.32 339.525 1075.2 264.823 1098.73 243.168C1122.26 221.512 1159.6 216.773 1180.2 246.729C1197.57 277.288 1183.24 291.619 1173.12 305.52C1185.73 309.11 1246.75 295.985 1248.07 229.698C1244.46 166.828 1166.05 155.225 1114.23 178.403C1062.42 201.58 955.518 240.554 862.032 429.219C768.547 617.885 746.651 787.795 746.651 787.795C746.651 787.795 693.002 1145.45 728.109 1318.81C664.085 1414.19 521.421 1377.97 521.421 1377.97L456.451 953.427C456.451 953.427 371.133 1225.15 358.294 1395.49C197.059 1432.08 112.974 1362.95 112.974 1362.95C112.974 1362.95 167.225 1051.71 141.432 878.753C115.639 705.798 110.28 590.141 0 477.125Z" fill="#63549E"/>
<path d="M1279.19 847.534C1294.32 687.302 1306.91 536.577 1203.73 434.246C1100.56 331.914 1009.48 436.687 1009.48 436.687C1009.48 436.687 905.565 532.125 854.208 795.349C802.851 1058.57 835.608 1177.68 848.362 1209.96C861.917 1244.42 901.61 1337.05 1002 1340.9C1098.61 1344.57 1178.54 1203.04 1201.47 1155.96C1236.2 1084.48 1264.15 1007.79 1279.19 847.534ZM1038.89 1139.77C994.236 1144.19 977.642 1077.87 973.63 1057.42C965.405 1003.31 958.555 937.688 1005.15 745.576C1056 536.376 1099.04 547.864 1099.04 547.864C1156.88 533.217 1175.22 756.146 1164.47 745.002C1153.72 733.858 1145.73 720.791 1117.38 717.861C1082.59 713.725 1064.25 808.158 1064.25 808.158C1064.25 808.158 1050.78 867.553 1086.23 905.808C1121.68 944.064 1162.29 872.895 1162.29 872.895C1162.29 872.895 1180.2 901.874 1136.5 1029.74C1131.8 1043.58 1109.76 1084.65 1089.67 1109.44C1080.16 1122.25 1058.2 1137.87 1038.89 1139.77Z" fill="#63549E"/>
<path d="M1322.18 405.64C1322.18 405.64 1386.4 711.169 1365.91 888.145C1345.42 1065.12 1326.33 1125.41 1225.11 1312.03C1368.41 1297.84 1497.37 1251.06 1497.37 1251.06C1497.37 1251.06 1435.93 869.879 1490.32 719.412C1569.59 833.95 1638.57 1163.92 1626.02 1228.25C1702.28 1248.36 1863.17 1259.04 1863.17 1259.04C1863.17 1259.04 1820.81 969.31 1852.14 737.879C1883.46 506.449 1963.62 335.792 1963.62 335.792C1963.62 335.792 1716.5 313.188 1693.08 340.272C1706.9 387.661 1752.92 463.541 1753.01 628.311C1753.09 793.08 1724.35 923.299 1724.35 923.299C1724.35 923.299 1569.59 692.645 1552.94 358.711C1410.68 385.536 1322.18 405.64 1322.18 405.64Z" fill="#63549E"/>
<path d="M2007.87 341.105C2007.87 341.105 2067.48 817.607 1901.09 1261.71C2019.37 1273.98 2157.01 1329.75 2168.11 1340.01C2179.2 1350.26 2034.99 1138.7 2122.91 829.785C2141.8 1047.43 2169.6 1218.17 2248.26 1318.55C2326.93 1418.93 2436.75 1476.86 2543.88 1431.85C2651.01 1386.85 2657.72 1285.81 2650.58 1254.45C2637.4 1196.4 2556.64 1124.83 2484.53 1178.77C2429.5 1220.82 2464.84 1266.94 2469.83 1272.31C2477.19 1280.3 2521.21 1306.78 2562.31 1265.71C2581.57 1231.01 2564.77 1218.69 2564.77 1218.69C2564.77 1218.69 2613.32 1238.28 2576.24 1303.04C2539.15 1367.81 2455.87 1309.91 2455.87 1309.91C2455.87 1309.91 2345.65 1264.18 2297.24 1052C2248.84 839.808 2267.92 826.31 2267.92 826.31C2267.92 826.31 2260.79 790.725 2396.55 624.893C2396.55 624.893 2448.48 556.624 2586.21 462.449C2495.99 414.055 2364.96 377.666 2364.96 377.666L2278.36 586.522C2278.36 586.522 2196.74 750.602 2131.28 754.91C2145.61 622.135 2270.88 370.974 2270.88 370.974C2270.88 370.974 2033.52 314.624 2007.87 341.105Z" fill="#63549E"/>
<path d="M2959.98 980.51C2959.98 980.51 2976.46 974.134 2990.13 976.26C3003.26 978.328 3038.85 1013.85 3020.88 1046.83C3005.4 1075.35 2980.39 1088.47 2947.54 1087.03C2914.7 1085.6 2891.14 1052.86 2890.57 1013.97C2890 975.082 2906.19 939.612 2924.73 920.37C2943.27 901.127 2993.14 871.545 3046.21 878.323C3097.08 884.871 3120.16 910.375 3145.38 936.424C3170.59 962.474 3189.45 1016.84 3193.49 1050.19C3196.93 1078.59 3200.23 1158.58 3182.69 1218.72C3168.19 1268.41 3129.78 1342.22 3079.75 1391.5C3029.71 1440.79 2961.18 1470.77 2877.04 1455.4C2792.9 1440.04 2733.95 1354.34 2733.95 1354.34C2733.95 1354.34 2693.17 1289.63 2679.5 1229.83C2665.83 1170.04 2661.61 1097.58 2667.89 1050.9C2636.62 1098.18 2605.24 1083.93 2592.23 1069.14C2579.22 1054.35 2554.4 1033.41 2579.96 954.892C2605.53 876.37 2658.89 902.534 2673.1 919.278C2671.96 875.795 2699.21 724.897 2725.64 663.407C2715.2 648.507 2700.8 636.837 2684.08 629.717C2684.08 629.717 2639.66 796.555 2623.9 834.265C2608.13 871.975 2549.07 1007.22 2515.8 1049.01C2482.52 1090.8 2431.57 1121.24 2385.43 1128.85C2337.51 1136.84 2298.16 1112.71 2254.83 1072.33C2367.46 1079.65 2394.63 1040.34 2428.13 1002.19C2466.82 958.108 2509.55 861.148 2523.36 830.015C2557.75 752.842 2630.55 553.55 2631.66 500.647C2701.3 507.54 2874.43 626.041 2874.43 626.041C2874.43 626.041 2847.24 670.759 2805.05 866.547C2784.42 972.813 2793.84 1078.16 2793.84 1078.16C2793.84 1078.16 2790.32 1223.49 2910.46 1240.95C3030.6 1258.41 3063.07 1164.9 3063.07 1164.9C3063.07 1164.9 3107.52 1056.05 3075.28 983.44C3043.03 910.834 2967.92 947.568 2959.98 980.51Z" fill="#63549E"/>
</svg>
